<?xml version="1.0" standalone="no"?>
<!DOCTYPE svg PUBLIC "-//W3C//DTD SVG 20010904//EN"
 "http://www.w3.org/TR/2001/REC-SVG-20010904/DTD/svg10.dtd">
<svg version="1.0" xmlns="http://www.w3.org/2000/svg"
 width="2603.000000pt" height="1243.000000pt" viewBox="0 0 2603.000000 1243.000000"
 preserveAspectRatio="xMidYMid meet">

<g transform="translate(0.000000,1243.000000) scale(0.100000,-0.100000)"
fill="#000000" stroke="none">
<path d="M12802 11474 l-94 -64 -71 41 c-40 23 -86 50 -104 61 l-32 19 39 -95
c22 -52 40 -98 40 -103 0 -4 -41 -34 -90 -66 -50 -33 -90 -61 -90 -64 0 -3 53
-4 119 -1 l118 5 38 -91 c21 -50 41 -94 45 -98 3 -4 21 37 39 92 l32 100 57 1
c31 1 86 4 122 8 l65 6 -97 55 c-54 30 -98 60 -98 67 0 6 14 50 31 98 16 48
29 88 27 90 -2 2 -45 -26 -96 -61z m22 -26 c-54 -68 -109 -126 -115 -122 -4 2
-3 21 3 41 7 31 20 45 66 75 61 40 75 42 46 6z m-204 -48 c35 -39 60 -73 57
-76 -3 -3 -22 -1 -42 6 -29 10 -41 22 -65 71 -17 32 -30 61 -30 64 0 17 25 -3
80 -65z m255 -107 c30 -15 55 -31 55 -35 0 -11 -9 -10 -66 6 -27 8 -68 20 -92
26 -23 6 -40 15 -37 20 12 19 85 10 140 -17z m-185 0 c0 -5 -13 -22 -28 -39
-25 -30 -32 -32 -109 -37 -46 -3 -83 -2 -83 3 0 7 184 78 208 79 6 1 12 -2 12
-6z m69 -131 c-11 -34 -24 -62 -28 -62 -8 0 -21 104 -21 165 l0 30 35 -35 35
-36 -21 -62z"/>
<path d="M13200 11503 c86 -57 169 -179 191 -284 48 -222 -128 -454 -388 -515
-95 -22 -265 -15 -352 15 -110 38 -216 121 -277 217 l-25 39 6 -40 c3 -22 23
-76 45 -121 52 -108 144 -196 262 -253 121 -58 156 -65 308 -66 115 0 145 4
205 23 254 84 414 276 415 498 0 125 -35 220 -119 322 -40 48 -172 140 -239
166 -53 20 -64 20 -32 -1z m278 -423 c3 -49 -1 -80 -17 -128 -38 -112 -114
-212 -161 -212 -46 0 -45 26 4 82 85 97 128 208 126 328 -2 89 -1 91 22 40 12
-25 23 -74 26 -110z m-153 -419 c0 -50 -216 -131 -347 -131 -67 0 -187 25
-213 44 -15 11 0 12 90 8 135 -6 244 15 346 68 87 44 124 47 124 11z"/>
<path d="M11427 10985 c-134 -59 -239 -151 -301 -265 -19 -36 -51 -119 -71
-185 -37 -122 -69 -175 -106 -175 -34 0 -38 54 -10 153 11 37 17 67 13 67 -4
0 -40 -28 -80 -61 -149 -123 -213 -255 -167 -343 8 -15 15 -34 15 -40 0 -13
-41 -56 -53 -56 -9 0 -133 210 -169 286 l-32 68 -38 -45 c-21 -24 -58 -82 -81
-128 -39 -79 -42 -89 -42 -170 0 -73 4 -95 28 -145 15 -33 43 -79 62 -102 19
-23 35 -52 35 -64 0 -28 -30 -80 -46 -80 -25 0 -56 62 -68 135 -6 40 -14 76
-18 80 -9 9 -73 -110 -97 -182 -37 -109 -24 -229 29 -266 20 -14 21 -16 6 -45
-24 -47 -34 -47 -77 -2 -46 48 -63 85 -91 195 -10 44 -23 84 -28 89 -13 13
-108 -191 -131 -284 -37 -148 -6 -291 78 -357 86 -67 79 -51 54 -126 -13 -38
-28 -67 -36 -67 -7 0 -25 13 -38 30 -22 25 -35 55 -73 160 -4 11 -9 6 -18 -15
-42 -98 -58 -255 -35 -326 16 -46 56 -98 86 -112 24 -11 25 -14 19 -76 -4 -36
-9 -67 -11 -69 -8 -8 -107 51 -138 82 -19 19 -58 71 -87 115 -60 92 -65 91
-76 -6 -3 -35 -10 -66 -15 -69 -12 -7 -12 -120 0 -142 5 -9 14 -43 20 -74 24
-134 112 -243 222 -276 l58 -17 3 -79 c2 -54 -1 -80 -9 -83 -23 -9 -85 31
-137 88 -29 33 -55 59 -57 59 -9 0 10 -150 26 -207 33 -114 124 -213 196 -213
24 0 28 -5 43 -63 8 -35 18 -71 22 -80 5 -14 0 -17 -24 -17 -49 0 -109 26
-200 89 -48 33 -89 56 -91 50 -5 -16 28 -127 59 -195 76 -169 192 -271 338
-298 l67 -12 38 -69 c20 -37 37 -72 37 -77 0 -15 -60 1 -137 37 -40 19 -73 32
-73 29 0 -3 16 -35 36 -71 78 -138 210 -243 307 -243 42 0 49 -4 81 -44 20
-23 36 -47 36 -51 0 -17 -149 5 -234 34 -49 17 -91 29 -94 27 -10 -10 79 -127
153 -202 140 -141 310 -204 434 -161 l45 16 63 -50 c35 -28 60 -56 57 -61 -5
-7 -47 -9 -123 -5 l-116 5 40 -34 c152 -131 321 -191 419 -150 21 9 44 16 52
16 19 0 104 -53 104 -65 0 -21 -102 -47 -212 -56 -60 -4 -112 -10 -115 -12 -2
-3 29 -25 69 -50 224 -140 441 -172 594 -87 l52 29 93 -36 c52 -20 98 -39 103
-44 17 -15 -76 -51 -150 -56 -41 -3 -74 -9 -74 -13 0 -4 30 -21 68 -38 184
-85 352 -89 439 -10 21 20 21 20 130 -11 59 -17 144 -39 188 -50 44 -10 103
-26 130 -34 28 -9 76 -19 108 -22 31 -4 57 -10 57 -15 0 -4 -30 -25 -67 -45
-83 -46 -185 -120 -237 -174 l-39 -40 39 6 c21 4 53 7 69 8 28 0 30 -3 39 -52
5 -29 12 -53 15 -53 3 1 24 26 46 57 52 73 177 201 236 241 37 25 53 30 85 26
21 -3 66 -1 99 4 59 10 61 10 113 -24 71 -47 189 -160 242 -233 24 -33 47 -58
52 -55 4 3 8 22 8 42 0 60 9 66 85 59 38 -4 66 -4 63 -2 -34 34 -221 165 -280
196 -43 22 -78 44 -78 48 0 4 33 11 74 14 44 3 94 14 123 27 70 32 292 89 299
78 4 -6 30 -21 58 -34 93 -43 248 -25 401 48 l70 33 -73 8 c-83 9 -144 27
-149 43 -2 6 49 31 114 57 105 40 120 44 138 31 50 -35 94 -47 187 -52 83 -4
109 -1 187 22 95 27 169 61 261 120 64 41 62 42 -70 50 -105 6 -204 30 -197
49 2 6 36 31 75 55 l71 43 42 -22 c34 -17 55 -20 114 -17 60 3 86 10 156 45
75 37 216 139 207 149 -2 2 -35 -2 -73 -7 -78 -13 -161 -8 -178 10 -12 13 5
31 90 97 l31 25 58 -17 c150 -43 313 24 469 194 47 51 127 163 122 169 -2 1
-45 -12 -97 -29 -109 -35 -250 -50 -250 -27 0 8 7 24 15 36 14 20 22 22 78 16
52 -4 72 -2 112 16 67 30 127 81 179 154 41 58 91 147 83 147 -3 0 -43 -18
-90 -40 -83 -39 -149 -51 -162 -30 -4 6 11 41 32 78 l39 67 79 6 c51 3 98 13
129 27 71 32 173 140 218 232 39 80 86 225 76 236 -4 3 -48 -21 -98 -55 -89
-59 -123 -74 -207 -87 -31 -5 -43 -3 -43 6 0 9 20 96 36 158 2 6 11 12 20 12
33 0 102 50 133 96 17 26 39 71 50 99 21 57 48 221 38 231 -3 4 -37 -26 -75
-65 -53 -54 -76 -71 -97 -71 -28 0 -28 0 -21 53 3 28 6 60 6 69 0 11 23 28 64
48 141 67 215 213 216 422 0 48 -4 89 -9 92 -4 3 -11 28 -14 56 -3 28 -9 55
-13 61 -3 6 -32 -29 -64 -77 -31 -49 -68 -99 -81 -110 -37 -33 -109 -75 -118
-70 -4 3 -11 30 -15 60 -6 55 -6 56 37 98 50 50 67 99 67 189 0 70 -22 175
-44 217 l-15 27 -15 -36 c-8 -19 -18 -47 -21 -61 -7 -26 -61 -98 -74 -98 -4 0
-17 32 -29 71 l-20 71 58 57 c45 44 62 69 74 111 29 99 16 238 -34 355 -28 66
-91 178 -96 172 -3 -2 -16 -46 -29 -96 -28 -104 -46 -144 -83 -183 -33 -36
-54 -35 -71 3 -12 27 -11 33 6 52 49 55 54 140 14 255 -24 70 -78 172 -91 172
-8 0 -14 -20 -25 -96 -6 -43 -38 -104 -54 -104 -12 0 -51 67 -51 87 0 8 14 31
31 51 18 20 44 61 58 92 22 47 26 69 26 150 0 86 -3 101 -31 160 -30 62 -111
180 -123 180 -3 0 -23 -35 -43 -78 -49 -102 -140 -252 -154 -252 -6 0 -21 11
-34 25 -23 25 -23 26 -7 60 9 20 17 48 17 63 0 34 -44 120 -89 175 -38 47
-171 161 -178 153 -3 -2 2 -29 11 -59 20 -70 21 -147 2 -147 -7 0 -31 17 -53
38 -35 32 -44 49 -63 122 -57 217 -157 348 -335 437 -95 48 -134 58 -152 41
-15 -16 -7 -46 28 -98 9 -14 20 -56 23 -95 11 -104 33 -192 63 -247 14 -26 23
-51 20 -54 -7 -7 -63 -32 -197 -87 -70 -29 -83 -31 -192 -30 -145 1 -151 -9
-37 -66 136 -68 203 -84 338 -78 64 3 154 14 201 25 47 11 121 28 164 38 l79
18 29 -34 c16 -19 27 -41 26 -50 -5 -21 -81 -40 -190 -47 -54 -3 -98 -9 -98
-13 0 -24 109 -81 201 -105 47 -13 92 -16 171 -13 l107 4 33 -33 c35 -36 32
-48 -17 -57 -103 -20 -230 -38 -308 -44 l-91 -7 85 -86 c98 -100 172 -141 296
-166 83 -16 107 -14 273 22 21 5 29 -1 48 -31 13 -20 21 -42 18 -49 -11 -30
-169 -26 -251 5 -34 13 -75 13 -75 0 0 -22 129 -138 186 -168 63 -33 177 -62
242 -62 33 0 39 -5 59 -41 13 -23 20 -46 16 -52 -10 -16 -171 -1 -235 22 -32
11 -87 34 -124 51 -59 29 -68 31 -81 17 -14 -14 -13 -20 12 -64 104 -178 253
-288 451 -334 49 -12 96 -24 104 -28 17 -9 58 -156 47 -167 -15 -15 -117 19
-196 66 -112 66 -122 59 -71 -48 51 -109 153 -200 264 -238 53 -18 66 -39 66
-105 0 -30 -4 -39 -17 -39 -35 0 -181 81 -250 139 -68 57 -104 73 -117 52 -10
-15 33 -164 66 -231 41 -81 150 -192 236 -240 101 -56 94 -45 86 -137 -4 -45
-10 -87 -15 -94 -17 -28 -84 33 -171 153 -27 38 -41 11 -40 -79 0 -106 34
-189 110 -273 l56 -62 -18 -71 c-10 -39 -25 -87 -33 -106 l-15 -36 -49 53
c-27 29 -67 91 -90 138 -48 96 -62 112 -83 95 -17 -14 -43 -108 -51 -186 -12
-111 33 -257 109 -357 l34 -45 -36 -61 c-19 -33 -40 -58 -44 -55 -13 7 -29 48
-48 123 -21 84 -40 89 -73 18 -51 -108 -59 -185 -30 -293 l16 -62 -39 -51
c-21 -28 -44 -53 -51 -56 -30 -13 -91 150 -98 259 -4 84 -23 109 -56 79 -33
-30 -99 -148 -120 -215 -24 -76 -25 -203 -3 -284 9 -33 18 -69 21 -80 3 -16
-11 -33 -61 -74 -37 -29 -72 -51 -80 -48 -18 7 -26 79 -19 165 8 92 -5 94 -78
15 -74 -82 -102 -147 -107 -255 l-4 -87 -93 -55 c-52 -31 -100 -56 -108 -56
-20 0 -27 31 -27 130 0 74 13 156 35 210 3 9 -1 24 -9 35 -13 19 -15 18 -57
-10 -68 -44 -161 -144 -196 -210 -41 -78 -60 -146 -68 -243 l-7 -79 -102 -36
c-55 -21 -107 -37 -115 -37 -23 0 -8 89 27 165 50 106 46 112 -50 64 -111 -56
-204 -169 -223 -271 -4 -21 -12 -41 -19 -46 -6 -5 -51 -19 -100 -31 -93 -23
-116 -19 -116 19 0 10 -12 28 -27 40 -38 30 -72 22 -225 -52 l-127 -61 -98 -1
-98 -2 -115 58 c-63 31 -137 62 -163 69 -44 11 -51 10 -75 -8 -15 -11 -29 -29
-31 -39 -2 -10 -7 -29 -12 -40 l-8 -22 -118 29 c-211 51 -203 47 -223 112 -23
74 -72 149 -125 192 -38 32 -150 95 -167 95 -16 0 -7 -39 22 -97 16 -33 33
-81 36 -106 8 -58 4 -58 -104 -16 l-79 31 -11 87 c-18 150 -67 255 -163 350
-88 87 -149 120 -162 88 -3 -8 4 -45 14 -83 15 -53 19 -93 17 -171 -2 -56 -6
-104 -10 -108 -7 -8 -56 16 -114 56 l-41 28 9 52 c20 109 -20 230 -107 327
-70 77 -79 70 -80 -63 0 -111 -14 -165 -41 -165 -7 0 -40 21 -73 48 -46 35
-60 52 -57 67 2 11 13 56 25 99 23 89 26 150 10 228 -13 65 -78 201 -117 248
-30 35 -30 35 -51 16 -17 -15 -21 -31 -21 -75 0 -71 -23 -160 -58 -224 -31
-58 -49 -68 -71 -40 -9 11 -33 41 -54 66 l-39 46 25 63 c36 91 41 141 22 223
-15 68 -57 155 -74 155 -16 0 -28 -25 -35 -70 -7 -49 -47 -143 -65 -155 -17
-10 -32 6 -65 69 l-30 55 41 53 c92 122 125 212 126 338 0 90 -24 205 -48 229
-21 22 -37 3 -89 -104 -46 -94 -129 -195 -161 -195 -15 0 -75 171 -75 212 0
11 21 43 46 70 66 71 96 144 101 248 2 47 0 91 -5 98 -12 17 -37 6 -49 -21
-15 -33 -113 -137 -128 -137 -14 0 -18 21 -29 138 -4 44 -2 54 12 59 44 16
152 96 203 150 31 32 73 92 93 131 37 74 71 194 62 218 -10 27 -46 13 -108
-41 -67 -59 -236 -151 -250 -137 -4 4 -5 36 -2 70 l7 62 60 32 c91 49 161 118
202 200 59 118 46 134 -56 68 -63 -41 -134 -68 -145 -57 -9 9 16 123 30 141 6
7 45 21 86 30 105 24 244 95 318 162 66 59 162 193 162 225 0 33 -23 31 -110
-10 -47 -22 -113 -46 -146 -55 -70 -18 -174 -21 -174 -6 0 6 9 29 20 50 18 35
25 40 54 40 52 0 185 38 235 67 56 33 171 141 171 161 0 16 -9 15 -140 -13
-70 -16 -153 -16 -168 -1 -8 9 29 77 45 83 7 3 52 -3 99 -12 181 -36 325 14
474 163 l85 86 -95 8 c-104 8 -317 42 -327 51 -6 7 45 72 62 80 6 2 36 1 68
-3 70 -8 156 2 230 25 60 19 158 73 164 91 2 7 -32 13 -99 17 -111 6 -178 21
-178 39 0 15 42 76 56 82 11 4 63 -6 224 -45 120 -29 301 -36 377 -14 118 34
259 106 247 127 -5 7 -30 8 -76 4 -99 -9 -188 8 -308 61 -136 60 -133 57 -109
96 30 49 57 148 65 234 4 57 14 93 35 135 33 65 36 83 13 92 -22 9 -21 9 -107
-29z m39 -62 c-4 -9 -14 -62 -22 -117 -26 -171 -43 -204 -140 -278 -39 -29
-58 -38 -66 -30 -7 7 -4 20 11 45 32 52 7 57 -38 8 -39 -42 -77 -53 -87 -26
-16 41 85 245 155 315 69 69 204 129 187 83z m3081 -7 c104 -49 192 -160 244
-307 36 -105 7 -131 -67 -58 -47 46 -77 46 -43 -1 13 -16 19 -36 15 -45 -5
-15 -9 -15 -37 2 -49 28 -119 100 -135 138 -7 19 -20 78 -29 132 -8 54 -17
113 -21 131 -8 40 2 41 73 8z m-3663 -498 c-8 -84 -21 -125 -46 -143 -29 -19
-38 -11 -28 25 11 39 -6 50 -21 13 -21 -53 -34 -76 -46 -81 -19 -6 -16 63 4
106 17 37 116 142 133 142 6 0 7 -26 4 -62z m4228 15 c69 -65 120 -178 89
-197 -12 -8 -38 24 -46 56 -4 15 -14 33 -23 40 -14 12 -15 9 -9 -25 5 -32 3
-38 -10 -35 -32 6 -52 51 -59 131 -4 42 -4 77 0 77 4 0 30 -21 58 -47z m-3546
-19 c72 -24 139 -44 148 -44 9 0 16 -6 16 -14 0 -10 -25 -20 -76 -32 -108 -23
-271 -13 -361 23 -80 32 -71 46 32 51 82 5 98 16 35 27 -45 8 -50 17 -17 33
30 15 70 8 223 -44z m3023 45 c42 -15 39 -25 -8 -33 -62 -10 -60 -26 2 -26 70
0 119 -10 114 -23 -2 -6 -32 -21 -68 -35 -56 -21 -81 -24 -204 -25 -138 -2
-218 12 -217 37 1 9 311 114 338 116 6 0 25 -5 43 -11z m-4099 -166 c90 -110
121 -273 65 -349 -13 -18 -14 -18 -34 0 -12 11 -21 29 -21 41 0 38 -12 85 -22
85 -5 0 -8 -33 -7 -72 3 -73 -13 -122 -36 -115 -5 1 -23 30 -40 62 -24 47 -31
76 -33 135 -2 42 1 94 7 116 11 42 67 134 81 134 5 0 23 -17 40 -37z m5037
-16 c38 -56 58 -142 49 -210 -9 -64 -41 -150 -65 -171 -18 -16 -20 -16 -35 6
-11 16 -16 45 -16 96 0 83 -14 89 -24 10 -12 -90 -44 -104 -72 -33 -32 86 -3
206 75 313 18 24 37 42 44 40 7 -3 26 -25 44 -51z m-4394 -97 c26 -7 46 -17
44 -23 -2 -6 -26 -23 -53 -37 -42 -21 -62 -25 -141 -25 -62 0 -96 4 -105 13
-21 21 8 32 84 32 37 0 70 4 73 10 9 15 -41 23 -100 16 -56 -6 -78 5 -48 24
22 14 179 7 246 -10z m3917 10 c26 -16 0 -25 -72 -25 -48 0 -73 -4 -75 -12 -4
-10 14 -13 65 -13 103 0 131 -16 72 -40 -49 -20 -165 -9 -234 23 -43 20 -56
31 -49 38 29 29 258 52 293 29z m-4034 -274 c26 -6 50 -18 52 -25 7 -20 -77
-91 -142 -122 -34 -15 -95 -32 -137 -38 -80 -11 -175 -5 -186 11 -11 19 35 49
98 64 83 19 104 39 31 30 -29 -4 -58 -9 -65 -12 -7 -2 -21 2 -32 10 -17 12
-17 16 -5 31 54 66 235 90 386 51z m4201 -2 c27 -9 61 -25 76 -37 28 -19 28
-20 10 -38 -15 -15 -25 -17 -58 -9 -22 5 -53 9 -70 9 l-30 0 25 -14 c14 -7 46
-16 71 -20 46 -6 110 -47 97 -61 -16 -15 -114 -23 -183 -14 -72 9 -137 30
-185 59 -30 18 -110 92 -110 102 0 4 15 12 33 18 100 33 236 35 324 5z m-4915
-174 c24 -71 26 -126 5 -147 -17 -18 -22 -13 -29 30 -6 38 -23 15 -23 -32 0
-57 -11 -74 -31 -47 -24 33 -18 126 12 196 15 33 32 59 37 57 6 -2 19 -28 29
-57z m5394 7 c31 -68 40 -134 24 -181 -20 -62 -44 -42 -41 36 1 27 -3 48 -9
48 -5 0 -10 -4 -10 -9 0 -5 -5 -22 -11 -38 -10 -27 -11 -27 -25 -9 -8 11 -14
31 -14 45 0 34 41 161 52 161 5 0 20 -24 34 -53z m-4996 -176 c0 -15 -76 -79
-121 -102 -49 -24 -153 -38 -163 -20 -7 11 49 51 72 51 20 0 86 30 79 36 -3 3
-40 -4 -82 -16 -42 -12 -79 -20 -81 -17 -8 8 7 35 24 43 60 26 272 45 272 25z
m4734 -6 c70 -15 114 -41 97 -58 -5 -5 -36 0 -76 12 -75 24 -85 25 -85 12 0
-5 33 -20 73 -33 47 -15 72 -28 72 -38 0 -24 -102 -18 -157 9 -48 23 -128 87
-128 102 0 14 127 10 204 -6z m-5361 -128 c60 -130 66 -163 37 -200 -25 -32
-32 -28 -49 25 -7 20 -19 42 -28 50 -15 12 -16 6 -9 -63 10 -114 -8 -139 -52
-75 -29 43 -40 135 -23 203 14 55 60 163 70 163 4 0 28 -46 54 -103z m5879 36
c25 -55 32 -85 35 -153 4 -74 1 -91 -19 -130 -43 -84 -82 -51 -58 49 8 35 9
55 1 68 -8 15 -14 9 -36 -42 l-27 -60 -20 25 c-16 19 -19 35 -16 71 5 46 86
238 101 239 5 0 22 -30 39 -67z m-5326 -177 c14 -37 -100 -157 -192 -202 -60
-29 -157 -43 -169 -24 -11 18 14 38 106 84 45 23 81 46 80 51 -3 15 -28 8
-124 -37 -48 -23 -90 -39 -93 -35 -4 3 -3 18 0 32 8 33 96 76 211 104 44 10
98 24 120 29 55 14 55 14 61 -2z m4835 -20 c165 -39 249 -84 249 -133 0 -20
-16 -16 -121 32 -110 50 -109 50 -109 31 0 -7 28 -26 63 -41 76 -34 127 -71
127 -92 0 -13 -9 -15 -58 -10 -99 8 -215 81 -280 175 -30 44 -34 55 -22 62 8
5 22 8 30 5 8 -2 63 -15 121 -29z m418 -398 c77 -281 101 -454 101 -743 0
-156 -5 -244 -20 -343 -148 -1008 -945 -1755 -2274 -2133 -158 -44 -166 -46
-166 -21 0 14 20 22 93 41 284 72 586 184 837 311 186 94 406 230 390 240 -8
5 -9 29 -4 79 4 46 3 71 -4 71 -13 0 -22 -24 -22 -59 0 -35 -19 -91 -31 -91
-15 0 -29 38 -29 82 0 76 82 210 110 182 16 -16 25 -206 11 -232 -6 -12 -8
-22 -3 -22 4 0 57 39 117 86 133 105 366 337 459 458 l69 89 -11 60 c-11 58
-25 87 -38 75 -3 -3 -1 -23 5 -45 17 -60 14 -105 -6 -101 -53 10 -76 155 -37
232 10 22 24 39 29 39 11 0 50 -71 81 -147 l20 -50 56 95 c31 52 70 123 88
157 l31 64 -20 44 c-12 24 -21 47 -21 52 0 4 -14 30 -31 56 -48 76 -57 44 -14
-47 54 -112 34 -165 -35 -95 -64 63 -98 182 -80 277 13 72 23 81 56 50 39 -35
144 -178 161 -219 18 -42 22 -38 70 104 70 206 109 413 120 637 l6 136 -78 66
c-70 60 -105 80 -105 60 0 -4 34 -39 75 -78 58 -54 74 -75 69 -89 -5 -13 -13
-16 -33 -11 -114 29 -228 156 -248 280 -5 30 -3 35 13 35 24 0 206 -100 257
-141 21 -17 41 -28 44 -25 16 16 -32 342 -77 518 -34 132 -33 128 -21 128 5 0
23 -51 40 -112z m-5899 -99 c0 -15 -6 -32 -14 -38 -11 -9 -16 -5 -26 19 -17
41 -35 39 -25 -2 18 -77 5 -100 -30 -53 -16 22 -20 41 -19 108 0 45 6 95 13
112 l12 29 44 -74 c25 -41 45 -87 45 -101z m6086 135 c22 -52 20 -156 -3 -201
-11 -20 -24 -38 -30 -40 -17 -6 -26 33 -14 56 13 24 14 61 2 61 -5 0 -14 -15
-21 -32 -11 -32 -12 -32 -26 -14 -7 11 -14 26 -14 34 0 13 81 172 88 172 2 0
10 -16 18 -36z m-5746 -78 c0 -15 -34 -80 -57 -106 -37 -44 -110 -90 -144 -90
-56 0 -40 27 49 83 23 15 42 29 42 32 0 14 -34 1 -86 -35 -58 -39 -86 -41 -65
-2 14 26 51 50 141 88 65 28 120 42 120 30z m5343 -20 c122 -46 187 -88 187
-121 0 -22 -16 -19 -63 14 -60 40 -87 53 -87 42 0 -6 20 -24 44 -40 63 -44 79
-62 67 -74 -30 -30 -170 63 -205 137 -15 33 -21 66 -11 66 2 0 33 -11 68 -24z
m-5633 -253 c0 -27 -6 -85 -14 -130 -7 -46 -12 -83 -10 -83 2 0 34 20 71 44
95 61 212 118 229 112 18 -7 11 -39 -21 -113 -41 -93 -148 -187 -220 -195 -63
-7 -39 37 75 136 29 25 40 40 32 43 -15 6 -56 -22 -125 -83 l-47 -42 0 -71 c0
-40 5 -81 10 -91 6 -11 12 -78 15 -149 5 -138 9 -154 121 -491 47 -138 166
-380 250 -505 197 -295 449 -545 761 -754 188 -126 544 -321 586 -321 13 0 52
-12 88 -26 150 -62 581 -194 632 -194 23 0 50 -31 39 -42 -13 -13 -254 52
-492 132 -603 202 -1087 492 -1425 854 -128 138 -177 199 -266 334 -184 282
-303 624 -340 981 -14 141 -6 458 15 591 9 52 16 98 16 103 0 4 5 7 10 7 6 0
10 -21 10 -47z m-243 -86 c87 -94 112 -141 93 -177 -15 -28 -22 -26 -59 20
-17 22 -37 40 -43 40 -14 0 -1 -47 23 -81 24 -35 35 -84 20 -94 -33 -19 -118
90 -136 174 -15 70 -5 217 14 209 4 -2 44 -43 88 -91z m6468 33 c14 -121 -19
-234 -86 -295 -22 -19 -44 -35 -49 -35 -19 0 -10 62 16 105 29 51 31 91 2 62
-9 -9 -26 -29 -37 -43 -27 -34 -51 -26 -51 18 1 18 6 43 13 55 17 30 166 193
177 193 4 0 11 -27 15 -60z m-6012 -570 c-3 -65 -33 -129 -80 -170 -62 -55
-78 -12 -23 63 31 43 36 57 20 57 -5 0 -28 -27 -50 -60 -23 -33 -45 -58 -51
-55 -19 12 -8 54 23 91 49 59 138 136 151 131 8 -3 11 -24 10 -57z m5540 0
c72 -67 112 -122 103 -145 -10 -26 -30 -16 -59 29 -30 48 -54 72 -63 63 -4 -3
10 -28 30 -55 33 -45 47 -92 29 -92 -5 0 -22 9 -40 19 -48 30 -84 100 -91 176
-6 84 4 84 91 5z m-5956 -32 c67 -51 93 -84 93 -114 0 -31 -8 -30 -42 3 -37
35 -39 8 -3 -35 27 -32 33 -62 12 -62 -21 0 -74 61 -96 110 -21 49 -38 140
-26 140 5 0 32 -19 62 -42z m6338 -10 c-8 -68 -48 -152 -85 -178 -56 -40 -68
-15 -20 45 46 58 37 71 -17 22 -20 -17 -23 -18 -28 -4 -4 8 0 27 7 41 14 26
125 125 141 126 5 0 6 -24 2 -52z m-5715 -294 c6 -14 10 -63 10 -108 0 -72 -4
-91 -31 -144 -32 -65 -69 -102 -102 -102 -17 0 -19 5 -14 34 3 19 19 63 36 97
18 38 27 67 22 72 -16 16 -27 0 -67 -88 -39 -87 -55 -101 -74 -65 -15 28 0 71
49 147 47 73 138 183 152 183 5 0 14 -12 19 -26z m-539 -162 c106 -51 159 -95
159 -131 0 -31 -11 -31 -66 1 -43 24 -54 27 -54 14 0 -9 22 -32 49 -51 91 -65
78 -115 -17 -66 -55 28 -119 98 -153 166 -30 63 -49 131 -33 124 5 -3 57 -28
115 -57z m6285 6 c-13 -66 -66 -156 -122 -207 -51 -47 -126 -83 -141 -68 -12
13 16 56 51 79 33 22 62 56 53 64 -2 2 -25 -7 -51 -21 -57 -30 -66 -31 -66 -6
0 37 53 82 159 136 58 30 110 54 115 54 5 1 6 -14 2 -31z m-5621 -353 c32 -84
5 -224 -44 -225 -11 0 -12 14 -7 75 8 88 -6 101 -24 23 -18 -80 -21 -88 -30
-88 -22 0 -29 38 -16 86 18 67 73 174 90 174 8 0 22 -20 31 -45z m-298 -199
c58 -30 66 -81 9 -55 -14 7 -29 9 -34 4 -4 -4 -2 -10 5 -12 24 -8 77 -48 81
-60 10 -33 -88 1 -138 48 -29 27 -90 113 -90 127 0 10 118 -26 167 -52z m5596
13 c-48 -82 -140 -159 -190 -159 -41 0 -28 24 35 60 44 27 41 44 -4 25 -44
-18 -44 -18 -44 -2 0 25 46 57 116 81 38 14 77 25 87 25 17 1 17 0 0 -30z
m-692 -6 c38 -94 70 -204 75 -252 5 -47 3 -60 -14 -81 -29 -35 -40 -19 -48 70
-8 86 -19 124 -35 115 -6 -5 -8 -39 -4 -98 3 -53 2 -98 -3 -106 -15 -22 -39
-6 -63 40 -40 78 -26 212 32 305 25 41 46 43 60 7z m-4293 -43 c57 -84 68
-214 26 -299 -45 -90 -82 -46 -64 77 9 63 5 92 -10 92 -14 0 -22 -33 -27 -112
-7 -95 -14 -109 -42 -84 -33 30 -28 109 15 235 50 146 59 154 102 91z m4822
-249 c0 -18 -81 -112 -123 -143 -75 -55 -181 -90 -223 -74 -15 6 -14 9 6 31
13 14 40 30 61 35 20 6 48 20 61 31 l23 20 -40 -5 c-22 -3 -52 -8 -67 -12 -39
-9 -37 17 3 50 35 29 47 33 179 57 121 21 120 21 120 10z m-5290 -42 c137 -19
200 -49 200 -92 0 -15 -5 -18 -22 -13 -53 14 -98 18 -98 8 0 -11 60 -42 83
-42 25 0 71 -45 62 -59 -12 -21 -102 -4 -168 31 -90 49 -223 202 -159 185 9
-3 55 -11 102 -18z m782 -86 c37 -40 58 -87 65 -142 6 -51 -8 -91 -31 -91 -18
0 -22 13 -31 83 -11 84 -29 73 -22 -13 6 -76 -1 -90 -28 -60 -20 22 -25 98
-12 193 9 65 21 70 59 30z m3241 -273 c-1 -137 -15 -202 -51 -230 -49 -39 -53
-21 -21 96 22 79 20 115 -5 95 -7 -6 -18 -36 -24 -67 -15 -74 -40 -124 -62
-124 -10 0 -21 7 -24 16 -9 24 -7 105 4 146 23 81 148 224 174 198 6 -6 10
-60 9 -130z m-2868 89 c71 -65 107 -138 112 -223 4 -52 1 -76 -10 -91 -12 -16
-17 -17 -30 -6 -16 13 -23 29 -52 134 -10 38 -21 57 -31 57 -13 0 -14 -8 -9
-42 4 -24 14 -60 21 -82 28 -77 12 -108 -34 -66 -32 30 -42 82 -42 228 0 153
3 157 75 91z m3655 -97 c0 -10 -72 -62 -116 -85 -67 -34 -181 -43 -171 -13 3
10 24 17 90 31 39 8 34 27 -8 24 -46 -4 -48 12 -5 33 25 13 59 18 123 18 48 0
87 -4 87 -8z m-4227 -32 c42 -20 36 -44 -9 -35 -27 5 -35 3 -32 -7 3 -7 24
-16 48 -20 49 -8 66 -20 55 -38 -11 -17 -93 -6 -151 19 -46 21 -124 77 -124
90 0 12 184 5 213 -9z m1064 -213 c43 -46 71 -113 59 -142 -12 -32 -36 -9 -90
86 -14 25 -21 30 -23 17 -2 -9 10 -41 27 -71 32 -57 28 -77 -10 -57 -34 18
-100 200 -86 237 8 21 73 -16 123 -70z m1893 57 c0 -29 -31 -136 -52 -181 -13
-28 -29 -45 -45 -49 -13 -4 -26 -4 -29 -1 -3 2 10 32 28 65 19 34 29 64 24 69
-5 4 -10 4 -12 -2 -3 -5 -18 -34 -34 -62 -22 -38 -37 -53 -52 -53 -19 0 -20 4
-15 42 7 54 51 115 111 156 53 35 76 40 76 16z m753 -96 c53 -12 97 -25 97
-30 0 -5 -39 -28 -86 -50 -75 -36 -98 -42 -169 -46 -87 -5 -155 10 -155 33 0
19 23 25 93 25 103 0 115 25 17 37 -58 7 -60 19 -9 46 38 20 56 18 212 -15z
m-3270 11 c49 -26 38 -48 -23 -49 -19 0 -41 -4 -49 -9 -23 -15 5 -23 73 -22
41 0 69 -4 82 -14 18 -15 19 -15 0 -29 -27 -22 -113 -29 -181 -17 -64 12 -207
78 -213 99 -2 7 6 12 20 12 13 1 57 9 98 20 87 21 162 25 193 9z m1235 -175
c98 -39 234 -114 229 -128 -11 -32 -194 13 -275 68 -57 38 -73 63 -52 76 21
14 24 13 98 -16z m771 12 c9 -11 4 -20 -24 -45 -48 -42 -98 -66 -186 -91 -88
-24 -115 -25 -123 -5 -4 11 23 29 107 71 168 85 205 96 226 70z m-758 -134
c60 -24 163 -52 191 -52 27 0 21 -29 -7 -36 -14 -3 -78 -7 -143 -8 -133 -1
-170 11 -192 63 -11 27 -8 91 6 113 3 4 24 -7 48 -26 23 -18 67 -42 97 -54z
m795 32 c14 -95 -41 -129 -206 -129 -58 0 -117 4 -132 8 -51 14 -31 32 55 49
86 18 211 73 241 107 25 27 33 20 42 -35z m-1472 30 c26 -10 18 -23 -19 -30
-55 -10 -41 -24 24 -24 63 0 84 -12 52 -29 -34 -18 -152 -13 -219 10 -34 11
-62 25 -62 29 0 5 26 16 58 25 31 9 62 18 67 20 17 6 82 5 99 -1z m2008 -16
c51 -12 87 -26 85 -32 -12 -35 -196 -68 -260 -47 -66 22 -36 46 44 35 31 -4
49 -3 49 4 0 12 -24 22 -51 22 -26 0 -24 19 4 30 31 12 31 12 129 -12z m-944
-40 c14 -14 16 -106 2 -128 -12 -19 -111 -20 -134 -1 -28 23 -18 126 13 134
35 10 108 6 119 -5z m238 -205 c80 -41 213 -133 214 -147 0 -4 -16 -5 -36 -1
-40 7 -54 -3 -54 -42 0 -13 -2 -23 -5 -23 -3 0 -51 46 -107 103 -57 57 -129
120 -161 141 -31 20 -55 41 -52 46 6 10 103 -27 201 -77z m-406 70 c0 -5 -20
-21 -45 -36 -60 -39 -186 -157 -230 -218 -39 -53 -55 -55 -55 -8 0 27 -2 29
-40 29 -22 0 -40 4 -40 8 0 16 154 124 235 164 115 59 175 79 175 61z"/>
<path d="M13172 9405 c-146 -50 -242 -50 -397 -4 -105 32 -225 22 -600 -50
-204 -39 -354 -61 -430 -61 -60 0 -60 0 -95 -47 -24 -32 -60 -62 -111 -92 -42
-24 -81 -53 -88 -63 -16 -25 -45 -1147 -31 -1183 10 -26 47 -49 95 -59 17 -3
301 -42 632 -86 601 -79 601 -79 666 -114 131 -69 241 -70 386 -1 75 36 78 36
673 115 328 43 602 81 608 85 38 24 40 55 40 708 0 727 11 655 -105 682 -79
18 -135 51 -160 92 l-16 28 -187 1 c-163 1 -210 5 -367 34 -121 21 -222 33
-310 36 -117 3 -137 1 -203 -21z m-317 -75 c30 -6 60 -20 75 -35 l25 -25 3
-675 c2 -665 2 -675 -18 -695 -28 -28 -99 -26 -242 4 -62 14 -225 47 -363 75
-646 131 -619 123 -635 167 -6 15 -10 228 -10 512 0 459 1 489 19 518 25 41
53 50 198 63 67 6 209 29 315 51 106 22 222 45 258 50 75 10 302 4 375 -10z
m605 9 c47 -5 139 -21 205 -35 197 -41 324 -62 434 -72 100 -9 106 -11 133
-41 l28 -31 0 -506 c0 -315 -4 -512 -10 -524 -5 -10 -25 -23 -42 -29 -18 -5
-244 -53 -503 -105 -258 -52 -490 -99 -515 -105 -71 -17 -145 -14 -169 7 -21
17 -21 17 -22 689 -1 746 -4 710 66 733 84 28 260 36 395 19z m943 -175 c37
-5 87 -32 88 -47 6 -48 -5 -164 -16 -176 -19 -20 -33 -7 -66 64 -20 40 -39 67
-56 74 -14 6 -28 9 -31 6 -10 -10 -32 18 -32 41 0 28 38 57 65 49 11 -4 32 -8
48 -11z m-2743 -70 c13 -32 -2 -54 -35 -54 -26 0 -47 -22 -65 -70 -18 -47 -29
-60 -50 -60 -20 0 -30 36 -30 110 0 55 20 79 78 90 74 15 92 12 102 -16z
m2641 -1045 c54 -34 119 -102 119 -123 0 -8 -7 -22 -16 -30 -13 -14 -46 -16
-227 -14 -174 2 -228 -1 -302 -16 -94 -20 -435 -31 -435 -15 0 5 19 13 43 19
23 5 64 22 90 36 32 17 82 31 150 41 56 8 118 23 138 33 20 11 78 28 130 39
52 11 126 29 164 40 92 26 90 26 146 -10z m-2466 -6 c22 -8 76 -22 120 -30 44
-8 107 -26 140 -39 33 -14 98 -29 145 -35 58 -7 103 -19 140 -38 30 -15 79
-34 107 -40 29 -7 51 -16 49 -20 -10 -15 -341 -4 -436 15 -78 16 -134 19 -309
17 -225 -2 -241 0 -241 41 0 32 25 63 93 113 58 42 64 44 107 38 25 -4 63 -14
85 -22z m1217 -280 c18 -16 24 -59 10 -79 -10 -16 -48 -34 -70 -34 -30 0 -72
38 -72 66 0 55 88 87 132 47z"/>
<path d="M12475 9243 c-22 -2 -123 -22 -225 -44 -102 -22 -229 -44 -283 -49
-106 -9 -141 -24 -158 -67 -6 -16 -9 -188 -7 -449 3 -410 4 -424 23 -444 16
-15 113 -40 445 -111 490 -105 528 -111 559 -80 21 21 21 24 21 595 l0 575
-22 26 c-13 14 -41 30 -63 35 -48 11 -234 20 -290 13z m230 -83 c20 -4 45 -16
56 -26 18 -16 19 -36 19 -535 0 -567 2 -549 -58 -549 -54 0 -837 172 -854 188
-17 14 -18 46 -18 404 l0 389 25 24 c13 14 30 25 37 25 51 0 215 26 331 51 77
17 167 34 200 39 66 9 200 4 262 -10z"/>
<path d="M12441 8902 c-6 -10 -8 -28 -5 -38 4 -15 -2 -24 -22 -33 -20 -9 -24
-15 -16 -23 12 -12 25 -7 87 31 28 17 32 31 20 69 -7 19 -53 14 -64 -6z"/>
<path d="M12490 8791 c-14 -27 -14 -29 19 -45 28 -15 30 -14 46 10 9 14 15 27
13 29 -10 8 -48 25 -57 25 -6 0 -15 -9 -21 -19z"/>
<path d="M12031 8770 c-13 -11 -29 -20 -37 -20 -14 0 -19 -36 -8 -64 15 -38
82 3 69 43 -4 14 0 23 15 31 11 6 20 15 20 20 0 17 -34 10 -59 -10z"/>
<path d="M12099 8749 c-13 -13 -18 -27 -14 -39 4 -13 -1 -23 -14 -32 -24 -15
-28 -38 -7 -38 7 0 24 8 37 18 13 9 33 22 44 28 21 12 22 48 3 72 -14 17 -25
15 -49 -9z"/>
<path d="M12355 8740 c-30 -32 -16 -43 17 -13 17 15 19 15 36 0 21 -19 42 -22
42 -6 0 13 -40 48 -56 49 -5 0 -23 -13 -39 -30z"/>
<path d="M12572 8705 c-10 -21 -9 -30 4 -50 23 -35 10 -45 -55 -45 -55 0 -58
1 -72 33 -18 42 -50 47 -78 11 -11 -15 -21 -40 -21 -56 0 -23 6 -31 30 -39 39
-14 38 -30 -5 -68 -40 -35 -73 -46 -109 -37 -37 9 -41 -11 -7 -29 68 -35 135
-6 172 74 l24 50 88 1 87 0 0 68 c0 45 -5 75 -16 90 -20 28 -28 28 -42 -3z"/>
<path d="M12197 8644 c-13 -25 -13 -32 -1 -57 14 -27 14 -29 -19 -62 -29 -29
-43 -35 -76 -35 -29 0 -41 -4 -41 -15 0 -17 58 -35 94 -28 30 6 83 62 92 98 8
31 -2 86 -20 110 -13 18 -14 17 -29 -11z"/>
<path d="M13243 9240 c-66 -9 -100 -23 -120 -49 -9 -12 -12 -156 -13 -597 0
-550 1 -582 18 -597 11 -10 35 -17 57 -17 32 0 171 27 310 60 22 5 159 34 305
65 146 30 275 57 288 60 12 3 31 14 42 25 19 19 20 35 20 459 l0 438 -25 25
c-27 27 -63 38 -129 38 -50 0 -162 19 -347 60 -151 33 -305 44 -406 30z m247
-70 c47 -5 162 -25 255 -45 94 -19 200 -38 237 -41 45 -4 76 -12 93 -25 l25
-20 0 -399 c0 -382 -1 -400 -19 -409 -10 -6 -95 -27 -187 -46 -93 -20 -266
-56 -384 -81 -285 -61 -293 -61 -319 -35 -21 21 -21 25 -21 521 0 344 3 507
11 523 15 34 42 46 124 56 98 12 91 12 185 1z"/>
<path d="M13490 8915 c-17 -18 -19 -25 -9 -25 8 0 20 5 26 11 8 8 17 7 31 -2
30 -19 41 -1 13 22 -30 24 -33 24 -61 -6z"/>
<path d="M13998 8918 c-16 -5 -28 -16 -28 -23 0 -11 6 -12 29 -4 34 12 63 40
40 38 -8 0 -26 -5 -41 -11z"/>
<path d="M13509 8859 c-8 -16 -8 -31 0 -58 17 -56 31 -152 25 -163 -12 -19
-103 -1 -135 27 -17 14 -41 25 -53 25 -28 0 -61 -34 -53 -54 3 -8 -1 -20 -9
-27 -34 -28 -36 -48 -14 -117 33 -104 31 -100 42 -72 7 17 6 42 -2 79 -9 40
-9 56 0 65 7 7 82 14 208 18 229 8 200 8 331 2 l104 -5 -9 73 c-4 40 -8 98 -9
130 0 49 -3 59 -28 78 -23 18 -28 19 -32 6 -3 -9 -7 -23 -10 -32 -3 -9 -1 -22
4 -28 12 -15 34 -153 26 -166 -3 -5 -29 -10 -56 -10 l-50 0 7 35 c5 31 3 36
-21 45 -64 24 -121 1 -112 -46 5 -27 -20 -40 -57 -30 -19 5 -24 16 -34 78 -7
45 -7 78 -1 89 14 27 11 33 -21 57 l-29 22 -12 -21z"/>
<path d="M13996 8832 c-14 -27 -14 -46 -4 -156 7 -69 16 -126 21 -126 4 0 14
15 22 34 13 30 13 50 0 152 -8 64 -16 119 -19 121 -2 3 -12 -9 -20 -25z"/>
<path d="M13305 8800 c-9 -10 -15 -26 -12 -34 4 -10 -2 -20 -13 -26 -11 -6
-20 -15 -20 -20 0 -13 37 -13 45 1 4 5 18 14 31 19 26 10 33 47 12 68 -16 16
-22 15 -43 -8z"/>
<path d="M13741 8536 c-30 -11 -55 -36 -37 -36 18 0 76 30 76 39 0 6 -1 11 -2
10 -2 0 -18 -6 -37 -13z"/>
<path d="M12450 6840 l0 -250 65 0 65 0 0 110 0 110 105 0 105 0 0 45 0 45
-105 0 -105 0 0 50 0 50 115 0 115 0 0 45 0 45 -180 0 -180 0 0 -250z"/>
<path d="M12890 6928 c1 -186 10 -241 48 -281 48 -51 79 -61 177 -62 78 0 96
3 134 25 79 44 86 66 89 288 l4 192 -66 0 -66 0 0 -175 c0 -110 -4 -183 -11
-199 -23 -49 -116 -58 -155 -14 -17 18 -19 42 -22 204 l-3 184 -65 0 -64 0 0
-162z"/>
<path d="M13440 7045 l0 -45 40 0 40 0 0 -160 0 -160 -40 0 -40 0 0 -45 0 -45
145 0 145 0 0 45 0 45 -40 0 -40 0 0 160 0 160 40 0 40 0 0 45 0 45 -145 0
-145 0 0 -45z"/>
<path d="M15389 6127 c-46 -31 -82 -100 -114 -221 -31 -114 -49 -154 -79 -176
-135 -97 -352 -207 -483 -245 -47 -14 -163 -33 -275 -45 -315 -36 -416 -69
-727 -244 -313 -175 -459 -219 -726 -219 -164 0 -246 13 -399 64 -90 30 -127
48 -391 191 -288 157 -418 192 -775 212 -165 10 -298 47 -448 128 -85 46 -242
153 -256 176 -3 5 -12 54 -20 108 -20 127 -40 186 -78 223 -38 37 -74 44 -118
23 -29 -14 -40 -29 -63 -87 -16 -38 -85 -201 -153 -361 -93 -218 -124 -302
-124 -333 0 -40 5 -47 103 -143 126 -125 268 -239 378 -305 197 -119 309 -149
593 -163 327 -16 506 -62 866 -227 102 -46 239 -104 305 -128 115 -42 339 -95
403 -95 17 0 34 -4 37 -10 8 -13 232 -13 240 0 3 6 21 10 38 10 37 0 162 23
249 46 107 27 290 103 453 188 314 163 448 200 860 235 394 34 662 124 953
318 114 76 151 117 136 151 -4 10 -10 35 -15 57 -15 80 -208 814 -218 834 -17
31 -61 61 -91 61 -15 0 -42 -10 -61 -23z m-4801 -79 c11 -13 26 -36 32 -53 16
-42 39 -175 30 -180 -3 -2 -44 34 -90 80 -75 76 -82 86 -76 112 16 62 65 82
104 41z m4960 -140 c5 -18 49 -187 97 -376 74 -289 86 -346 77 -367 -14 -31
-174 -136 -307 -203 -220 -110 -426 -165 -697 -187 -433 -36 -580 -75 -925
-252 -203 -104 -337 -157 -500 -200 -101 -26 -121 -28 -318 -28 -167 0 -227 4
-295 18 -147 32 -298 86 -512 183 -442 200 -608 244 -993 263 -172 8 -199 12
-282 40 -159 53 -270 119 -451 269 -137 114 -242 225 -242 258 0 25 232 580
251 598 5 6 34 -16 77 -60 215 -220 450 -368 678 -429 33 -9 136 -22 229 -30
391 -33 488 -62 821 -250 75 -43 164 -90 198 -105 181 -82 407 -127 588 -117
243 14 417 73 703 237 282 162 402 200 735 235 182 19 234 31 365 86 182 75
400 212 580 363 55 47 103 85 107 85 4 1 11 -14 16 -31z"/>
<path d="M10475 5449 c-41 -54 -75 -103 -75 -108 0 -6 10 -16 22 -22 19 -10
26 -7 59 32 l37 44 32 -23 c17 -13 38 -21 46 -18 24 9 16 35 -17 51 -32 17
-36 41 -8 58 12 8 24 5 48 -12 32 -23 61 -22 61 1 0 7 -30 32 -65 54 l-64 41
-76 -98z"/>
<path d="M15392 5527 c-21 -10 -23 -15 -17 -54 7 -49 2 -52 -39 -18 -28 22
-31 23 -59 9 -34 -18 -35 -16 46 -68 39 -26 73 -58 92 -88 17 -26 33 -48 36
-48 4 0 17 8 29 18 l22 18 -31 49 c-17 27 -31 61 -31 76 0 42 -12 119 -19 118
-3 0 -17 -5 -29 -12z"/>
<path d="M15112 5385 c-79 -37 -92 -62 -31 -57 34 2 35 1 79 -88 44 -90 54
-99 90 -80 17 9 15 16 -30 102 -49 93 -52 118 -13 118 19 0 12 34 -7 37 -8 1
-48 -13 -88 -32z"/>
<path d="M10716 5375 c-30 -33 -76 -121 -76 -148 0 -32 19 -56 60 -77 50 -25
71 -25 104 1 31 24 86 128 86 162 0 37 -51 78 -104 84 -39 5 -48 2 -70 -22z
m101 -41 c6 -16 -42 -127 -63 -145 -17 -14 -44 0 -44 23 0 38 62 138 86 138 8
0 17 -7 21 -16z"/>
<path d="M14927 5313 c-10 -3 -17 -8 -15 -12 2 -3 23 -57 48 -119 25 -63 51
-112 58 -112 7 0 22 4 32 10 17 9 15 17 -28 125 -47 116 -50 120 -95 108z"/>
<path d="M14695 5288 c-73 -40 -51 -114 41 -139 48 -14 64 -26 64 -51 0 -29
-30 -35 -52 -9 -13 17 -24 22 -43 17 -31 -8 -31 -16 -3 -51 19 -24 26 -27 64
-22 66 7 94 30 94 76 0 47 -17 64 -90 88 -42 14 -55 23 -55 38 0 25 35 33 51
11 9 -13 17 -14 39 -6 l28 11 -23 24 c-26 27 -79 33 -115 13z"/>
<path d="M10947 5178 c-15 -52 -27 -106 -27 -121 0 -35 36 -59 98 -65 38 -3
50 0 66 17 21 23 78 202 67 213 -3 4 -17 9 -30 10 -23 3 -26 -4 -51 -88 -31
-106 -35 -114 -60 -114 -30 0 -31 27 -3 125 15 52 25 97 22 99 -2 2 -16 7 -30
11 -25 6 -27 4 -52 -87z"/>
<path d="M11265 5236 c-2 -6 -17 -62 -33 -124 -30 -118 -29 -129 15 -120 13 2
21 18 28 63 6 33 15 59 20 58 6 -1 14 -34 19 -72 9 -67 11 -70 39 -77 16 -3
32 -2 37 2 8 10 60 205 60 227 0 14 -39 31 -48 22 -3 -2 -10 -27 -16 -55 -6
-28 -16 -52 -21 -53 -6 -1 -15 27 -20 63 -10 62 -12 65 -44 71 -21 4 -34 3
-36 -5z"/>
<path d="M14451 5236 c-30 -6 -56 -16 -58 -23 -4 -10 51 -230 59 -238 2 -2 16
-1 31 2 31 6 31 9 11 87 -6 24 -4 26 24 26 27 0 32 -5 44 -42 12 -39 16 -43
43 -40 16 2 31 5 33 7 8 8 -32 96 -47 104 -12 8 -13 14 -3 35 21 46 -15 98
-65 95 -10 -1 -42 -6 -72 -13z m69 -51 c10 -13 9 -19 -6 -36 -17 -19 -19 -19
-31 -3 -30 41 5 78 37 39z"/>
<path d="M11521 5098 c-28 -148 -28 -144 17 -152 51 -8 114 -7 129 2 20 12 41
73 48 138 7 57 6 62 -19 81 -14 11 -47 24 -73 27 -27 4 -55 9 -64 12 -14 4
-20 -14 -38 -108z m119 37 c16 -20 -8 -134 -32 -149 -31 -19 -38 4 -22 74 22
99 28 107 54 75z"/>
<path d="M14218 5167 c-38 -11 -68 -25 -68 -32 0 -16 70 -218 79 -227 3 -4 39
3 79 15 51 15 72 26 72 37 0 26 -8 29 -55 14 -41 -12 -46 -12 -55 6 -19 35
-11 49 30 60 42 11 45 16 31 39 -7 11 -15 11 -46 1 -34 -11 -40 -11 -52 6 -19
26 -12 36 36 52 29 10 41 19 39 30 -4 22 -15 22 -90 -1z"/>
<path d="M11858 5108 c-38 -51 -118 -178 -118 -187 0 -5 12 -12 27 -15 24 -7
36 0 46 28 1 5 17 5 35 1 27 -6 32 -11 32 -36 0 -16 3 -29 8 -29 4 0 17 -3 29
-6 23 -6 23 -8 37 188 l5 66 -31 11 c-43 15 -43 15 -70 -21z m36 -85 c-8 -45
-15 -55 -32 -44 -11 6 -10 15 4 44 23 48 37 47 28 0z"/>
<path d="M14035 5108 c-11 -6 -21 -12 -23 -13 -1 -1 4 -34 13 -74 8 -40 15
-77 15 -82 0 -23 -21 -4 -63 61 -46 68 -47 69 -77 59 -16 -6 -30 -13 -30 -15
0 -4 134 -177 160 -207 3 -4 23 -1 43 8 35 15 37 17 31 53 -3 20 -11 77 -17
126 -7 49 -16 91 -22 92 -5 2 -19 -2 -30 -8z"/>
<path d="M12066 5045 c-8 -21 1 -35 20 -35 28 0 24 -26 -16 -108 -22 -46 -40
-89 -40 -96 0 -12 48 -32 55 -24 1 2 22 45 46 96 43 95 45 96 90 78 11 -5 18
-1 22 13 4 17 -7 25 -76 53 -45 18 -84 34 -88 36 -3 2 -9 -5 -13 -13z"/>
<path d="M13757 4999 c-12 -7 -15 -15 -9 -22 4 -7 28 -57 52 -112 24 -55 45
-102 47 -104 1 -2 15 2 31 8 l29 12 -50 115 c-52 116 -61 125 -100 103z"/>
<path d="M12306 4922 c-7 -15 -31 -67 -52 -116 -36 -85 -37 -89 -19 -102 10
-8 24 -14 30 -14 9 0 105 207 105 228 0 5 -11 14 -25 20 -22 10 -26 9 -39 -16z"/>
<path d="M13621 4931 c-11 -7 -11 -16 4 -54 26 -69 15 -76 -35 -23 -37 39 -49
46 -70 41 -14 -4 -28 -10 -33 -14 -5 -5 70 -209 89 -239 0 -1 13 2 27 7 l26
10 -21 51 c-11 28 -18 53 -14 57 3 4 28 -15 55 -41 45 -44 49 -46 74 -35 15 7
27 15 27 19 0 3 -20 55 -44 115 -43 107 -57 124 -85 106z"/>
<path d="M12471 4834 c-26 -19 -81 -128 -81 -162 0 -51 49 -92 110 -92 50 0
70 17 101 86 45 100 38 140 -31 168 -51 20 -70 20 -99 0z m87 -58 c2 -10 -8
-47 -23 -82 -20 -47 -32 -64 -46 -64 -11 0 -22 7 -26 15 -6 17 20 94 44 133
16 27 46 26 51 -2z"/>
<path d="M13378 4793 c-22 -6 -23 0 8 -111 20 -73 23 -97 13 -108 -30 -36 -47
-11 -79 109 l-23 88 -31 -7 c-17 -3 -32 -7 -34 -9 -7 -6 58 -198 73 -215 36
-40 149 -13 161 37 4 14 0 51 -9 82 -8 31 -20 75 -27 99 -10 41 -16 45 -52 35z"/>
<path d="M12702 4652 c-47 -148 -47 -149 -23 -157 30 -9 36 -2 51 60 7 31 18
54 24 52 6 -2 12 -33 14 -69 3 -64 3 -65 37 -75 l34 -11 39 122 38 121 -24 9
c-29 10 -32 7 -47 -51 -18 -69 -32 -65 -40 12 -8 70 -7 69 -46 78 -26 7 -27 4
-57 -91z"/>
<path d="M7480 3515 l0 -154 -36 24 c-115 78 -272 20 -338 -125 -25 -55 -29
-195 -7 -250 66 -166 242 -221 361 -114 l39 35 3 -38 3 -38 79 -3 79 -3 -7 62
c-3 34 -6 219 -6 410 l0 349 -85 0 -85 0 0 -155z m-27 -266 c28 -30 29 -34 25
-121 -3 -87 -4 -91 -36 -119 -55 -49 -134 -32 -166 35 -25 52 -21 145 7 187
46 68 119 76 170 18z"/>
<path d="M17050 3260 l0 -410 85 0 85 0 0 410 0 410 -85 0 -85 0 0 -410z"/>
<path d="M19570 3260 l0 -410 70 0 70 0 6 38 6 38 34 -33 c71 -66 184 -69 276
-6 107 73 147 254 87 394 -60 138 -236 183 -344 87 l-35 -30 0 166 0 166 -85
0 -85 0 0 -410z m348 4 c32 -21 52 -72 52 -133 0 -95 -43 -151 -114 -151 -75
0 -116 53 -116 150 0 127 88 193 178 134z"/>
<path d="M21240 3515 l0 -154 -36 24 c-115 78 -272 20 -338 -125 -25 -55 -29
-195 -7 -250 66 -166 242 -221 361 -114 l39 35 3 -38 3 -38 79 -3 79 -3 -7 62
c-3 34 -6 219 -6 410 l0 349 -85 0 -85 0 0 -155z m-27 -266 c28 -30 29 -34 25
-121 -3 -87 -4 -91 -36 -119 -55 -49 -134 -32 -166 35 -25 52 -21 145 7 187
46 68 119 76 170 18z"/>
<path d="M8842 3627 c-28 -29 -29 -86 -3 -118 15 -19 29 -24 66 -24 39 0 51 5
71 28 28 32 30 56 9 96 -17 33 -33 41 -84 41 -26 0 -44 -7 -59 -23z"/>
<path d="M12202 3627 c-28 -29 -29 -86 -3 -118 15 -19 29 -24 66 -24 39 0 51
5 71 28 28 32 30 56 9 96 -17 33 -33 41 -84 41 -26 0 -44 -7 -59 -23z"/>
<path d="M14662 3627 c-28 -29 -29 -86 -3 -118 15 -19 29 -24 66 -24 39 0 51
5 71 28 28 32 30 56 9 96 -17 33 -33 41 -84 41 -26 0 -44 -7 -59 -23z"/>
<path d="M4530 3240 l0 -390 85 0 85 0 0 155 0 155 140 0 140 0 0 70 0 70
-140 0 -140 0 0 95 0 95 150 0 150 0 0 70 0 70 -235 0 -235 0 0 -390z"/>
<path d="M10722 3343 c3 -279 4 -290 27 -341 30 -66 95 -125 158 -143 27 -8
86 -14 133 -13 171 2 268 83 299 249 6 32 11 166 11 297 l0 238 -84 0 -84 0
-4 -262 c-3 -244 -5 -266 -25 -310 -34 -75 -119 -101 -190 -58 -64 39 -68 55
-71 358 l-3 272 -85 0 -85 0 3 -287z"/>
<path d="M16230 3240 l0 -390 85 0 85 0 0 390 0 390 -85 0 -85 0 0 -390z"/>
<path d="M8545 3559 c-22 -5 -57 -14 -77 -20 l-38 -10 0 -59 0 -60 -40 0 -40
0 0 -65 0 -65 39 0 39 0 4 -162 c3 -133 6 -169 21 -196 34 -62 111 -90 213
-77 l54 6 0 65 0 64 -38 0 c-71 0 -77 11 -80 164 l-4 136 61 0 61 0 0 65 0 65
-60 0 -60 0 0 80 c0 44 -3 80 -7 79 -5 -1 -26 -5 -48 -10z"/>
<path d="M15095 3559 c-22 -5 -57 -14 -77 -20 l-38 -10 0 -59 0 -60 -40 0 -40
0 0 -65 0 -65 39 0 39 0 4 -162 c3 -133 6 -169 21 -196 34 -62 111 -90 213
-77 l54 6 0 65 0 64 -38 0 c-71 0 -77 11 -80 164 l-4 136 61 0 61 0 0 65 0 65
-60 0 -60 0 0 80 c0 44 -3 80 -7 79 -5 -1 -26 -5 -48 -10z"/>
<path d="M5287 3410 c-138 -35 -212 -134 -212 -285 0 -63 5 -90 24 -127 102
-210 439 -207 532 4 27 62 32 180 10 242 -18 52 -86 125 -139 148 -50 22 -160
31 -215 18z m124 -126 c66 -34 90 -168 47 -254 -45 -89 -147 -88 -188 2 -42
91 -14 224 52 253 42 18 53 18 89 -1z"/>
<path d="M6701 3406 c-18 -6 -51 -27 -72 -44 l-39 -33 0 40 0 41 -75 0 -75 0
0 -280 0 -280 85 0 85 0 0 165 c0 178 8 219 51 249 33 23 73 20 106 -8 l28
-24 3 -191 3 -191 85 0 84 0 0 198 c0 108 -5 214 -10 234 -30 105 -151 163
-259 124z"/>
<path d="M7924 3410 c-22 -4 -58 -16 -79 -24 -29 -12 -36 -20 -30 -33 3 -10 9
-30 12 -46 8 -37 12 -38 68 -22 97 30 185 14 197 -33 5 -17 -2 -20 -59 -26
-129 -13 -211 -57 -244 -130 -68 -150 60 -291 223 -246 21 6 51 22 68 36 l30
26 6 -31 7 -31 76 0 76 0 -5 207 c-5 217 -10 241 -59 297 -45 52 -182 79 -287
56z m176 -339 c0 -62 -28 -99 -81 -107 -62 -10 -99 49 -68 107 14 26 64 48
112 49 l37 0 0 -49z"/>
<path d="M9327 3410 c-138 -35 -212 -134 -212 -285 0 -63 5 -90 24 -127 102
-210 439 -207 532 4 27 62 32 180 10 242 -18 52 -86 125 -139 148 -50 22 -160
31 -215 18z m124 -126 c66 -34 90 -168 47 -254 -45 -89 -147 -88 -188 2 -42
91 -14 224 52 253 42 18 53 18 89 -1z"/>
<path d="M10071 3406 c-18 -6 -51 -27 -72 -44 l-39 -33 0 40 0 41 -75 0 -75 0
0 -280 0 -280 85 0 85 0 0 165 c0 178 8 219 51 249 33 23 73 20 106 -8 l28
-24 3 -191 3 -191 85 0 84 0 0 198 c0 108 -5 214 -10 234 -30 105 -151 163
-259 124z"/>
<path d="M11761 3406 c-18 -6 -51 -27 -72 -44 l-39 -33 0 40 0 41 -75 0 -75 0
0 -280 0 -280 85 0 85 0 0 165 c0 178 8 219 51 249 33 23 73 20 106 -8 l28
-24 3 -191 3 -191 85 0 84 0 0 198 c0 108 -5 214 -10 234 -30 105 -151 163
-259 124z"/>
<path d="M13257 3406 c-164 -44 -244 -254 -161 -424 42 -86 118 -130 238 -139
61 -4 208 16 222 30 2 2 -1 30 -8 61 -10 52 -13 57 -32 51 -12 -4 -54 -9 -94
-12 -84 -7 -151 13 -176 52 -35 54 -32 55 164 55 l180 0 0 65 c0 199 -144 312
-333 261z m112 -107 c31 -11 61 -52 61 -84 0 -12 -16 -15 -100 -15 -89 0 -100
2 -100 18 0 27 29 63 64 78 38 16 36 16 75 3z"/>
<path d="M13942 3400 c-27 -12 -50 -33 -65 -57 l-22 -38 -3 53 -3 52 -75 0
-74 0 0 -280 0 -280 85 0 85 0 0 150 c0 205 20 248 120 258 l50 5 0 78 0 79
-27 0 c-16 0 -47 -9 -71 -20z"/>
<path d="M14276 3409 c-107 -25 -171 -116 -146 -208 13 -50 62 -93 137 -121
105 -39 129 -71 81 -104 -30 -21 -73 -20 -147 3 l-61 19 -10 -37 c-20 -77 -18
-84 25 -100 60 -21 209 -20 267 2 62 24 105 73 113 131 14 92 -36 157 -149
196 -66 22 -96 44 -96 71 0 39 79 51 155 24 22 -8 40 -15 41 -15 7 -1 24 114
17 120 -12 12 -109 30 -151 29 -20 -1 -55 -5 -76 -10z"/>
<path d="M16676 3409 c-107 -25 -171 -116 -146 -208 13 -50 62 -93 137 -121
105 -39 129 -71 81 -104 -30 -21 -73 -20 -147 3 l-61 19 -10 -37 c-20 -77 -18
-84 25 -100 60 -21 209 -20 267 2 62 24 105 73 113 131 14 92 -36 157 -149
196 -66 22 -96 44 -96 71 0 39 79 51 155 24 22 -8 40 -15 41 -15 7 -1 24 114
17 120 -12 12 -109 30 -151 29 -20 -1 -55 -5 -76 -10z"/>
<path d="M17484 3410 c-22 -4 -58 -16 -79 -24 -29 -12 -36 -20 -30 -33 3 -10
9 -30 12 -46 8 -37 12 -38 68 -22 97 30 185 14 197 -33 5 -17 -2 -20 -59 -26
-129 -13 -211 -57 -244 -130 -68 -150 60 -291 223 -246 21 6 51 22 68 36 l30
26 6 -31 7 -31 76 0 76 0 -5 207 c-5 217 -10 241 -59 297 -45 52 -182 79 -287
56z m176 -339 c0 -62 -28 -99 -81 -107 -62 -10 -99 49 -68 107 14 26 64 48
112 49 l37 0 0 -49z"/>
<path d="M18221 3407 c-18 -6 -48 -25 -67 -42 l-33 -31 -6 38 -7 38 -69 0 -69
0 0 -280 0 -280 85 0 85 0 0 186 0 186 29 29 c47 47 109 36 130 -22 6 -19 11
-105 11 -205 l0 -174 85 0 85 0 0 186 0 186 29 29 c38 37 79 38 112 3 23 -25
24 -30 27 -215 l3 -189 85 0 84 0 0 180 c0 258 -19 322 -110 368 -74 37 -155
25 -220 -34 l-39 -36 -31 36 c-46 52 -121 68 -199 43z"/>
<path d="M19084 3410 c-22 -4 -58 -16 -79 -24 -29 -12 -36 -20 -30 -33 3 -10
9 -30 12 -46 8 -37 12 -38 68 -22 97 30 185 14 197 -33 5 -17 -2 -20 -59 -26
-129 -13 -211 -57 -244 -130 -68 -150 60 -291 223 -246 21 6 51 22 68 36 l30
26 6 -31 7 -31 76 0 76 0 -5 207 c-5 217 -10 241 -59 297 -45 52 -182 79 -287
56z m176 -339 c0 -62 -28 -99 -81 -107 -62 -10 -99 49 -68 107 14 26 64 48
112 49 l37 0 0 -49z"/>
<path d="M20384 3410 c-22 -4 -58 -16 -79 -24 -29 -12 -36 -20 -30 -33 3 -10
9 -30 12 -46 8 -37 12 -38 68 -22 97 30 185 14 197 -33 5 -17 -2 -20 -59 -26
-129 -13 -211 -57 -244 -130 -68 -150 60 -291 223 -246 21 6 51 22 68 36 l30
26 6 -31 7 -31 76 0 76 0 -5 207 c-5 217 -10 241 -59 297 -45 52 -182 79 -287
56z m176 -339 c0 -62 -28 -99 -81 -107 -62 -10 -99 49 -68 107 14 26 64 48
112 49 l37 0 0 -49z"/>
<path d="M5760 3230 c0 -258 19 -322 110 -367 76 -39 165 -26 231 34 l39 35 0
-41 0 -41 75 0 75 0 0 280 0 280 -84 0 -85 0 -3 -186 -3 -186 -33 -29 c-59
-52 -119 -32 -141 48 -6 21 -11 109 -11 196 l0 157 -85 0 -85 0 0 -180z"/>
<path d="M8820 3130 l0 -280 85 0 85 0 0 280 0 280 -85 0 -85 0 0 -280z"/>
<path d="M12180 3130 l0 -280 85 0 85 0 0 280 0 280 -85 0 -85 0 0 -280z"/>
<path d="M12460 3333 c15 -43 61 -169 102 -280 l73 -203 86 0 c74 0 88 3 94
18 4 9 46 123 95 252 49 129 93 248 99 263 l11 28 -92 -3 -92 -3 -13 -45 c-8
-25 -31 -112 -53 -195 -21 -82 -41 -143 -44 -135 -2 8 -19 67 -36 130 -17 63
-40 145 -51 183 l-20 67 -94 0 -94 0 29 -77z"/>
<path d="M14640 3130 l0 -280 85 0 85 0 0 280 0 280 -85 0 -85 0 0 -280z"/>
<path d="M15320 3407 c0 -2 47 -120 105 -262 58 -142 105 -268 105 -279 0 -28
-64 -90 -114 -111 -35 -15 -38 -18 -32 -48 18 -88 26 -107 49 -107 40 0 123
49 170 99 74 79 111 163 263 589 l43 122 -93 0 -94 0 -46 -187 c-25 -102 -47
-187 -49 -189 -1 -2 -27 81 -58 184 l-56 187 -96 3 c-53 1 -97 1 -97 -1z"/>
<path d="M16233 2329 c-24 -28 -43 -57 -43 -63 0 -14 32 -45 74 -72 l29 -18
49 54 49 55 -53 47 c-29 26 -55 47 -58 48 -3 0 -24 -23 -47 -51z"/>
<path d="M11233 2230 c-18 -28 -23 -50 -23 -105 -1 -96 -26 -149 -95 -201 -18
-14 -12 -14 69 -8 99 7 121 17 160 73 28 40 33 70 14 89 -16 16 -60 15 -84 -3
-30 -22 -32 -19 -22 35 5 28 8 74 6 103 l-3 52 -22 -35z m71 -196 c41 -16 -9
-67 -78 -79 l-39 -8 24 33 c13 17 35 38 49 46 30 16 25 15 44 8z"/>
<path d="M16672 2218 c-29 -37 -41 -82 -46 -173 -9 -135 -13 -151 -47 -179
-32 -27 -59 -25 -59 5 0 29 -16 23 -40 -16 -33 -53 -80 -73 -80 -35 0 27 -7
25 -51 -15 -46 -41 -94 -48 -104 -15 -9 29 -20 25 -44 -15 -24 -41 -63 -60
-92 -45 -10 6 -19 16 -19 22 0 9 -3 9 -12 0 -7 -7 -14 -70 -19 -169 -8 -184
-23 -239 -93 -337 -81 -113 -170 -166 -293 -174 -125 -8 -192 24 -227 110 -30
70 -19 165 41 371 3 9 1 17 -5 17 -5 0 -21 -27 -36 -61 -66 -153 -93 -346 -62
-453 33 -113 122 -174 237 -163 93 10 162 48 254 141 117 118 182 253 220 455
8 46 15 96 15 111 0 23 6 30 34 40 18 6 42 20 51 30 12 13 31 20 54 20 20 0
53 9 74 20 20 11 46 20 58 20 11 0 34 10 51 21 17 12 46 23 65 25 104 9 176
119 193 293 15 156 12 185 -18 149z"/>
<path d="M7494 2169 c-21 -22 -51 -47 -66 -55 -36 -19 -112 -18 -149 2 -16 8
-38 13 -47 10 -41 -13 -182 -187 -182 -223 0 -23 20 -14 51 22 35 40 72 53 94
35 23 -19 105 -16 150 5 57 27 137 110 169 178 16 32 27 60 24 62 -2 3 -22
-14 -44 -36z"/>
<path d="M12985 2069 c-214 -131 -300 -176 -417 -217 -170 -60 -409 -94 -673
-94 -177 0 -251 9 -395 44 -113 28 -159 26 -226 -8 -76 -38 -118 -89 -143
-170 -49 -157 -37 -220 45 -248 52 -18 84 -42 84 -63 0 -27 -40 -91 -83 -134
-106 -106 -268 -144 -359 -85 -15 10 -39 42 -54 72 -24 50 -26 61 -22 156 4
82 12 125 41 213 23 72 32 113 25 120 -14 15 -32 -15 -68 -109 -52 -134 -73
-238 -73 -361 -1 -94 3 -118 22 -163 77 -174 294 -174 459 2 103 111 157 228
167 365 8 97 -3 118 -78 153 -51 25 -57 31 -57 58 0 51 27 90 77 112 56 25 79
19 148 -36 37 -30 70 -48 107 -56 138 -31 567 -20 746 19 118 26 281 84 373
133 41 22 158 98 260 169 101 71 191 132 201 134 9 3 23 17 32 30 9 14 23 36
32 50 9 14 15 25 13 25 -2 -1 -85 -51 -184 -111z"/>
<path d="M16117 2122 c-26 -26 -47 -55 -47 -64 0 -21 63 -76 97 -84 23 -6 32
-1 63 34 l37 41 27 -28 c15 -16 43 -37 61 -47 l34 -18 43 48 c24 27 46 54 50
60 3 6 -18 31 -52 57 l-58 47 -44 -45 -45 -44 -53 45 c-30 25 -56 46 -60 46
-3 0 -27 -22 -53 -48z"/>
<path d="M14394 2068 c-62 -67 -61 -65 -19 -108 22 -22 46 -40 54 -40 17 0
101 79 101 95 0 9 -92 85 -103 85 -2 0 -17 -15 -33 -32z"/>
<path d="M17926 1979 c-15 -12 -40 -47 -56 -79 -32 -64 -70 -100 -106 -100
-18 0 -29 -11 -49 -50 -14 -27 -25 -52 -25 -55 0 -3 15 -5 34 -5 46 0 75 26
111 101 31 64 41 74 85 83 31 6 95 106 77 118 -20 13 -43 9 -71 -13z"/>
<path d="M17100 1958 c-14 -24 -20 -51 -20 -98 0 -91 -15 -135 -61 -181 -23
-23 -39 -43 -36 -45 8 -9 163 18 187 33 34 20 70 73 70 104 0 48 -37 62 -90
34 l-28 -15 5 100 c3 55 3 100 -1 100 -3 0 -15 -15 -26 -32z m80 -216 c0 -27
-29 -49 -74 -58 l-39 -7 22 31 c36 51 91 71 91 34z"/>
<path d="M8479 1858 l-33 -83 -6 -260 c-5 -236 -7 -263 -25 -294 -34 -57 -65
-73 -151 -79 -73 -5 -77 -4 -69 14 52 119 54 139 55 393 0 135 -4 241 -8 235
-5 -5 -19 -34 -32 -64 -22 -51 -24 -72 -30 -295 -4 -132 -10 -248 -14 -257 -5
-12 -19 -18 -38 -18 -29 0 -30 -1 -16 -22 26 -41 76 -59 150 -56 57 3 73 8
105 34 21 17 54 54 73 82 29 45 35 50 43 35 21 -39 63 -73 107 -88 130 -43
539 -33 785 19 215 45 397 135 625 307 96 73 192 143 212 156 33 22 95 100 86
108 -2 2 -88 -52 -191 -120 -194 -128 -345 -209 -457 -245 -171 -55 -445 -93
-670 -93 -177 0 -294 13 -378 45 -83 31 -83 32 -82 349 1 149 0 273 -3 275 -3
3 -20 -32 -38 -78z"/>
<path d="M18137 1913 c-2 -5 -14 -38 -26 -75 -21 -64 -22 -82 -19 -315 3 -233
4 -251 25 -289 62 -115 208 -163 463 -151 318 16 640 101 888 233 179 96 232
164 232 299 0 86 -13 135 -46 175 -28 33 -73 41 -93 16 -18 -22 -61 -157 -61
-192 0 -42 30 -64 88 -64 51 0 62 -18 37 -56 -34 -52 -299 -155 -512 -199
-221 -46 -454 -63 -629 -46 -202 20 -283 52 -319 127 -16 35 -18 60 -12 291 5
224 2 277 -16 246z"/>
<path d="M10472 1897 c-6 -6 -27 -52 -47 -102 l-38 -90 7 -165 c3 -92 2 -203
-4 -250 -15 -133 9 -131 56 5 25 75 28 95 35 322 4 133 10 251 14 262 7 23 -9
36 -23 18z"/>
<path d="M15080 1850 c-37 -57 -48 -109 -49 -233 -1 -66 -2 -69 -45 -114 l-43
-47 -17 58 c-26 89 -72 120 -115 77 -29 -29 -73 -175 -61 -205 11 -31 25 -39
75 -46 35 -4 40 -9 43 -33 5 -41 -19 -62 -138 -122 -58 -29 -116 -62 -130 -74
l-25 -20 40 0 c54 0 187 24 215 39 24 13 71 108 89 184 9 35 26 65 61 103 81
89 109 161 126 321 8 75 13 143 12 152 -2 8 -18 -9 -38 -40z"/>
<path d="M6620 1839 c-11 -19 -23 -44 -26 -56 -11 -40 3 -566 15 -605 42 -133
154 -131 221 5 18 37 34 87 37 120 6 64 -6 76 -25 23 -27 -74 -94 -93 -143
-39 -41 47 -50 111 -48 356 1 120 -1 220 -4 223 -3 4 -15 -9 -27 -27z"/>
<path d="M7252 1783 l-37 -78 -6 -275 c-3 -151 -4 -277 -2 -279 8 -10 23 19
49 94 25 73 28 99 35 300 4 121 11 241 14 268 10 71 -10 59 -53 -30z"/>
<path d="M17464 1798 c-62 -67 -61 -65 -19 -108 22 -22 46 -40 54 -40 17 0
101 79 101 95 0 9 -92 85 -103 85 -2 0 -17 -15 -33 -32z"/>
<path d="M18841 1733 l-49 -57 19 -27 c10 -15 38 -36 61 -48 l43 -22 47 53
c26 29 47 56 45 59 -1 3 -28 27 -59 52 l-57 46 -50 -56z"/>
<path d="M7842 1743 c-10 -16 -29 -46 -41 -68 -16 -29 -38 -49 -77 -69 -69
-36 -159 -133 -195 -211 -50 -107 -56 -189 -44 -577 7 -238 16 -308 29 -225
16 102 19 159 21 432 3 322 6 346 56 392 38 34 126 70 227 92 123 27 160 54
182 132 11 36 -8 62 -73 99 -29 16 -55 30 -59 30 -4 0 -15 -12 -26 -27z"/>
<path d="M14430 1678 c-37 -53 -48 -58 -105 -52 l-52 6 -37 -51 c-47 -63 -100
-101 -143 -101 -27 0 -32 4 -38 30 -10 46 -42 80 -75 80 -39 0 -53 -17 -86
-102 -44 -117 -36 -152 41 -164 48 -7 62 -26 50 -65 -7 -20 -133 -87 -269
-143 -69 -29 -31 -37 99 -22 104 12 122 17 139 38 21 26 81 150 91 189 4 16
19 32 40 42 19 9 65 52 102 97 l68 80 62 0 c57 0 63 2 89 32 15 18 35 53 46
77 24 56 9 75 -22 29z"/>
<path d="M17246 1609 c-9 -19 -32 -79 -52 -134 -20 -54 -47 -115 -59 -135 -36
-57 -134 -142 -222 -195 -46 -27 -83 -55 -83 -62 0 -7 6 -11 13 -9 6 3 63 16
125 31 62 15 123 36 136 46 13 10 38 56 57 106 l34 87 6 -55 c7 -67 29 -111
64 -127 64 -29 134 -2 183 71 30 44 66 126 59 134 -3 2 -22 -7 -42 -22 -45
-30 -100 -33 -152 -8 -62 29 -77 99 -48 222 18 75 6 106 -19 50z"/>
<path d="M6347 1528 c-16 -51 -23 -84 -17 -86 22 -8 71 -55 85 -83 21 -40 18
-76 -7 -102 -13 -13 -66 -47 -118 -76 -95 -52 -146 -88 -139 -96 8 -7 203 46
228 62 13 8 43 56 69 111 75 159 69 270 -18 330 -18 12 -38 22 -44 22 -7 0
-24 -37 -39 -82z"/>
<path d="M17813 1598 c-25 -12 -83 -148 -83 -195 0 -38 28 -63 71 -66 46 -3
59 -13 59 -47 0 -35 -38 -69 -156 -140 -107 -64 -97 -57 -90 -68 7 -12 192 42
216 63 22 20 68 121 86 189 27 101 13 199 -36 248 -31 31 -35 32 -67 16z"/>
<path d="M13587 1573 c-2 -5 -15 -39 -27 -78 -35 -108 -79 -194 -119 -234 -20
-20 -80 -63 -134 -96 -85 -53 -118 -85 -87 -85 27 0 198 32 223 42 34 13 68
69 108 179 30 84 69 229 69 262 0 17 -25 24 -33 10z"/>
<path d="M15664 1498 c-62 -67 -61 -65 -19 -108 22 -22 46 -40 54 -40 17 0
101 79 101 95 0 9 -92 85 -103 85 -2 0 -17 -15 -33 -32z"/>
<path d="M16357 1404 c-44 -52 -46 -59 -34 -78 8 -12 33 -34 56 -50 l41 -30
45 44 44 43 45 -41 c60 -55 81 -54 131 8 22 26 40 52 41 57 3 9 -101 93 -114
93 -5 0 -23 -18 -41 -40 -17 -22 -36 -40 -41 -40 -5 0 -34 20 -64 45 -31 25
-57 45 -59 45 -1 0 -24 -25 -50 -56z"/>
<path d="M6657 962 c-20 -21 -37 -45 -37 -54 0 -21 65 -78 89 -78 10 0 38 21
61 47 l43 46 -44 38 c-24 21 -51 39 -59 39 -9 0 -33 -17 -53 -38z"/>
<path d="M14837 944 c-44 -52 -46 -59 -34 -78 8 -12 33 -34 56 -50 l41 -30 45
44 44 43 45 -41 c60 -55 81 -54 131 8 22 26 40 52 41 57 3 9 -101 93 -114 93
-5 0 -23 -18 -41 -40 -17 -22 -36 -40 -41 -40 -5 0 -34 20 -64 45 -31 25 -57
45 -59 45 -1 0 -24 -25 -50 -56z"/>
<path d="M13927 924 c-44 -52 -46 -59 -34 -78 8 -12 33 -34 56 -50 l41 -30 45
44 44 43 45 -41 c60 -55 81 -54 131 8 22 26 40 52 41 57 3 9 -101 93 -114 93
-5 0 -23 -18 -41 -40 -17 -22 -36 -40 -41 -40 -5 0 -34 20 -64 45 -31 25 -57
45 -59 45 -1 0 -24 -25 -50 -56z"/>
</g>
</svg>
